<svg width="197" height="76" viewBox="0 0 197 76" fill="none" xmlns="http://www.w3.org/2000/svg">
<path d="M2.69476 53.8216V22.1784H14.1118C15.7684 22.1784 17.2609 22.525 18.5891 23.2181C19.9323 23.8962 20.9919 24.8756 21.768 26.1564C22.5589 27.4222 22.9544 28.9214 22.9544 30.6543C22.9544 31.4227 22.8425 32.1987 22.6186 32.9823C22.3948 33.7659 22.0516 34.4741 21.5889 35.1069C21.1262 35.7247 20.5293 36.1843 19.798 36.4857C20.768 36.7268 21.5591 37.1637 22.1709 37.7966C22.7828 38.4294 23.2604 39.1753 23.6036 40.0342C23.9469 40.878 24.1783 41.7445 24.2976 42.6335C24.4319 43.5075 24.4991 44.3211 24.4991 45.0745C24.4991 46.7471 24.0887 48.2388 23.2678 49.5497C22.447 50.8607 21.3426 51.9004 19.9547 52.6688C18.5817 53.4373 17.0594 53.8216 15.3878 53.8216H2.69476ZM8.15704 49.0977H14.8282C15.7236 49.0977 16.5296 48.8792 17.2459 48.4422C17.9623 48.0053 18.5369 47.4025 18.9697 46.6341C19.4024 45.8656 19.6189 44.9916 19.6189 44.0122C19.6189 43.1684 19.4024 42.3697 18.9697 41.6164C18.5369 40.863 17.9623 40.2527 17.2459 39.7856C16.5296 39.3184 15.7236 39.0849 14.8282 39.0849H8.15704V49.0977ZM8.15704 34.4288H13.485C14.5894 34.4288 15.5296 34.0823 16.3057 33.3891C17.0966 32.696 17.4922 31.7769 17.4922 30.6317C17.4922 29.4112 17.0966 28.4919 16.3057 27.8742C15.5296 27.2413 14.5894 26.9249 13.485 26.9249H8.15704V34.4288ZM37.1943 54.4092C35.1347 54.4092 33.2543 53.8743 31.5529 52.8045C29.8665 51.7347 28.5158 50.2956 27.501 48.4874C26.501 46.6793 26.0011 44.6828 26.0011 42.4978C26.0011 40.8554 26.2921 39.3184 26.8741 37.887C27.4562 36.4404 28.2547 35.1747 29.2695 34.0898C30.2993 32.9898 31.4932 32.1309 32.8513 31.5132C34.2095 30.8954 35.657 30.5865 37.1943 30.5865C38.9404 30.5865 40.5373 30.9632 41.9849 31.7166C43.4475 32.455 44.6863 33.4721 45.7011 34.7679C46.7159 36.0637 47.4546 37.5405 47.9173 39.1979C48.38 40.8554 48.4844 42.5883 48.2307 44.3964H31.8663C32.0752 45.2402 32.4186 46.0012 32.8961 46.6793C33.3736 47.3422 33.978 47.8772 34.7094 48.284C35.4407 48.6757 36.269 48.8792 37.1943 48.8943C38.1495 48.9094 39.015 48.6834 39.7911 48.2162C40.582 47.7341 41.2388 47.0861 41.7611 46.2724L47.3353 47.5833C46.4249 49.5875 45.0669 51.2298 43.261 52.5106C41.4551 53.7764 39.4329 54.4092 37.1943 54.4092ZM31.6872 40.2602H42.7013C42.5372 39.3561 42.1864 38.5425 41.6492 37.8192C41.1268 37.0808 40.4776 36.4931 39.7015 36.0562C38.9254 35.6193 38.0897 35.4007 37.1943 35.4007C36.2988 35.4007 35.4705 35.6193 34.7094 36.0562C33.9482 36.4782 33.299 37.0582 32.7618 37.7966C32.2395 38.5199 31.8813 39.341 31.6872 40.2602ZM51.4477 53.8216L51.4253 31.2193H56.8876L56.9099 33.2309C57.6711 32.4172 58.5815 31.7769 59.6411 31.3097C60.7008 30.8276 61.8425 30.5865 63.0662 30.5865C63.8871 30.5865 64.7079 30.707 65.5287 30.9481L63.3796 36.5083C62.8125 36.2822 62.2454 36.1692 61.6782 36.1692C60.7977 36.1692 59.9918 36.3878 59.2605 36.8247C58.5441 37.2466 57.9697 37.8267 57.5368 38.5651C57.119 39.2883 56.9099 40.0945 56.9099 40.9835V53.8216H51.4477ZM67.7023 53.8216L67.6799 31.2193H73.1422L73.1645 33.2309C73.9257 32.4172 74.8361 31.7769 75.8957 31.3097C76.9554 30.8276 78.0971 30.5865 79.3208 30.5865C80.1417 30.5865 80.9625 30.707 81.7833 30.9481L79.6342 36.5083C79.0671 36.2822 78.5 36.1692 77.9328 36.1692C77.0524 36.1692 76.2464 36.3878 75.5151 36.8247C74.7987 37.2466 74.2242 37.8267 73.7914 38.5651C73.3736 39.2883 73.1645 40.0945 73.1645 40.9835V53.8216H67.7023ZM119.761 53.8216H114.344L106.867 31.2193H112.217L117.075 45.843L121.91 31.2193H127.305L132.141 45.843L136.999 31.2193H142.349L134.872 53.8216H129.454L124.597 39.1301L119.761 53.8216ZM145.233 31.2193H150.695V53.8216H145.233V31.2193ZM148.009 28.3036C147.203 28.3036 146.524 28.0399 145.972 27.5126C145.419 26.9701 145.143 26.292 145.143 25.4784C145.143 24.6798 145.419 24.0092 145.972 23.4668C146.524 22.9243 147.196 22.6531 147.986 22.6531C148.777 22.6531 149.442 22.9243 149.979 23.4668C150.532 24.0092 150.807 24.6798 150.807 25.4784C150.807 26.292 150.539 26.9701 150.001 27.5126C149.464 28.0399 148.799 28.3036 148.009 28.3036ZM161.883 54.2284C160.719 54.1531 159.592 53.9195 158.502 53.5277C157.428 53.1209 156.472 52.571 155.637 51.8778C154.802 51.1846 154.16 50.3559 153.712 49.3915L158.323 47.4025C158.502 47.7038 158.794 48.0279 159.196 48.3744C159.599 48.706 160.077 48.9847 160.629 49.2107C161.196 49.4367 161.816 49.5497 162.487 49.5497C163.054 49.5497 163.591 49.4744 164.099 49.3237C164.621 49.158 165.039 48.9094 165.353 48.5778C165.682 48.2463 165.845 47.8169 165.845 47.2895C165.845 46.732 165.651 46.3025 165.263 46.0012C164.89 45.6848 164.412 45.4512 163.83 45.3005C163.264 45.1348 162.711 44.9841 162.174 44.8485C160.757 44.5621 159.436 44.1177 158.211 43.5149C157.003 42.9122 156.025 42.1362 155.279 41.1869C154.547 40.2225 154.182 39.0623 154.182 37.7062C154.182 36.2144 154.569 34.9261 155.346 33.8412C156.137 32.7563 157.159 31.92 158.413 31.3323C159.682 30.7447 161.048 30.4509 162.51 30.4509C164.285 30.4509 165.912 30.8276 167.39 31.581C168.883 32.3194 170.061 33.3665 170.927 34.7227L166.606 37.2993C166.398 36.9377 166.107 36.6061 165.733 36.3048C165.36 35.9884 164.934 35.7323 164.457 35.5364C163.98 35.3254 163.479 35.2048 162.957 35.1747C162.286 35.1446 161.674 35.2048 161.122 35.3555C160.569 35.5063 160.121 35.7624 159.778 36.124C159.45 36.4857 159.286 36.9678 159.286 37.5706C159.286 38.1431 159.51 38.5725 159.958 38.8589C160.405 39.1301 160.943 39.341 161.569 39.4917C162.212 39.6425 162.823 39.8082 163.405 39.989C164.719 40.4259 165.95 40.9609 167.099 41.5938C168.263 42.2266 169.196 43.0026 169.897 43.9218C170.598 44.841 170.934 45.9409 170.905 47.2217C170.905 48.6834 170.472 49.9641 169.606 51.0641C168.74 52.149 167.621 52.9778 166.248 53.5503C164.89 54.1229 163.434 54.3489 161.883 54.2284ZM183.788 54.4092C181.728 54.4092 179.848 53.8743 178.147 52.8045C176.461 51.7347 175.11 50.2956 174.095 48.4874C173.096 46.6793 172.595 44.6828 172.595 42.4978C172.595 40.8554 172.886 39.3184 173.468 37.887C174.05 36.4404 174.849 35.1747 175.863 34.0898C176.893 32.9898 178.088 32.1309 179.445 31.5132C180.804 30.8954 182.252 30.5865 183.788 30.5865C185.534 30.5865 187.132 30.9632 188.579 31.7166C190.042 32.455 191.28 33.4721 192.295 34.7679C193.31 36.0637 194.049 37.5405 194.511 39.1979C194.974 40.8554 195.079 42.5883 194.824 44.3964H178.46C178.67 45.2402 179.013 46.0012 179.49 46.6793C179.968 47.3422 180.573 47.8772 181.303 48.284C182.035 48.6757 182.863 48.8792 183.788 48.8943C184.743 48.9094 185.61 48.6834 186.385 48.2162C187.177 47.7341 187.833 47.0861 188.355 46.2724L193.929 47.5833C193.019 49.5875 191.661 51.2298 189.855 52.5106C188.05 53.7764 186.027 54.4092 183.788 54.4092ZM178.281 40.2602H189.295C189.131 39.3561 188.78 38.5425 188.243 37.8192C187.721 37.0808 187.072 36.4931 186.295 36.0562C185.52 35.6193 184.683 35.4007 183.788 35.4007C182.892 35.4007 182.064 35.6193 181.303 36.0562C180.542 36.4782 179.893 37.0582 179.355 37.7966C178.833 38.5199 178.475 39.341 178.281 40.2602Z" fill="white"/>
<path d="M95.5026 57.5297C95.0978 58.61 94.6641 59.5587 94.2014 60.3762C93.7387 61.2228 92.9146 62.0403 91.7291 62.8286C90.5724 63.6168 89.0399 64.0109 87.1315 64.0109C86.3218 64.0109 85.6278 63.9379 85.0496 63.792C84.4713 63.6752 84.1098 63.6023 83.9652 63.573V59.3252C84.4279 59.442 85.0496 59.5004 85.8303 59.5004C86.7845 59.5004 87.5508 59.3398 88.1291 59.0187C88.7074 58.6976 89.1701 58.2742 89.517 57.7487C89.864 57.2232 90.211 56.4933 90.558 55.5591L91.2954 53.7199L83.0544 31.1233H89.1267L94.0713 47.0197H94.3315L99.5363 31.1233H105.609L95.5026 57.5297Z" fill="white"/>
</svg>
